<svg viewBox="0 0 340 260" width="340px" height="260px" xmlns="http://www.w3.org/2000/svg" xmlns:bx="https://boxy-svg.com">
  <defs>
    <bx:export>
      <bx:file format="svg"></bx:file>
    </bx:export>
  </defs>
  <g transform="matrix(0.9912869334220885, 0, 0, 0.9992620348930358, -14.405802726745609, -13.716870307922363)">
    <rect style="fill-rule: nonzero; stroke: rgb(255, 255, 255); stroke-width: 0px; fill: rgb(230, 230, 230); transform-origin: 251.826px 205.425px;" transform="matrix(0.985986, -0.166827, 0.164416, 0.986394, -63.927027, -123.853593)" x="111.287" y="192.512" width="281.077" height="25.826" rx="12.015" ry="12.015"></rect>
    <rect style="fill-rule: nonzero; stroke: rgb(255, 255, 255); stroke-width: 0px; fill: rgb(230, 230, 230); transform-origin: 183.734px 205.425px;" transform="matrix(0.985986, -0.166827, 0.164416, 0.986394, 25.09495, -102.378974)" x="81.196" y="192.512" width="205.077" height="25.826" rx="12.015" ry="12.015"></rect>
    <rect style="fill-rule: nonzero; stroke: rgb(255, 255, 255); stroke-width: 0px; fill: rgb(230, 230, 230); transform-origin: 233.847px 205.425px;" transform="matrix(0.985986, -0.166827, 0.164416, 0.986394, -88.514386, -142.044601)" x="103.341" y="192.512" width="261.01" height="25.826" rx="12.015" ry="12.015"></rect>
    <rect style="fill-rule: nonzero; stroke: rgb(255, 255, 255); stroke-width: 0px; fill: rgb(230, 230, 230); transform-origin: 293.722px 205.425px;" transform="matrix(0.985986, -0.166827, 0.164416, 0.986394, -99.946111, -14.149463)" x="129.802" y="192.512" width="327.839" height="25.826" rx="12.015" ry="12.015"></rect>
    <rect style="fill-rule: nonzero; stroke: rgb(255, 255, 255); stroke-width: 0px; fill: rgb(230, 230, 230); transform-origin: 230.511px 205.425px;" transform="matrix(0.985986, -0.166827, 0.164416, 0.986394, -36.575721, 10.839559)" x="101.867" y="192.512" width="257.287" height="25.826" rx="12.015" ry="12.015"></rect>
    <rect style="fill-rule: nonzero; stroke: rgb(255, 255, 255); stroke-width: 0px; fill: rgb(230, 230, 230); transform-origin: 233.847px 205.425px;" transform="matrix(0.985986, -0.166827, 0.164416, 0.986394, -59.583989, -36.241093)" x="103.341" y="192.512" width="261.01" height="25.826" rx="12.015" ry="12.015"></rect>
  </g>
  <defs id="defs2713"></defs>
  <path style="color: rgb(0, 0, 0); font-style: normal; font-variant: normal; font-weight: normal; font-stretch: normal; font-size: medium; line-height: normal; font-family: sans-serif; font-feature-settings: normal; text-indent: 0px; text-align: start; text-decoration: none solid rgb(0, 0, 0); letter-spacing: normal; word-spacing: normal; text-transform: none; writing-mode: lr-tb; direction: ltr; text-orientation: mixed; dominant-baseline: auto; baseline-shift: baseline; text-anchor: start; white-space: normal; clip-rule: nonzero; display: inline; overflow: visible; visibility: visible; opacity: 1; isolation: auto; mix-blend-mode: normal; color-interpolation: srgb; color-interpolation-filters: linearrgb; vector-effect: none; fill: rgb(255, 255, 255); fill-opacity: 1; fill-rule: evenodd; stroke-linecap: butt; stroke-linejoin: miter; stroke-miterlimit: 4; stroke-dasharray: none; stroke-dashoffset: 0; stroke-opacity: 1; color-rendering: auto; image-rendering: auto; shape-rendering: auto; text-rendering: auto; paint-order: fill; stroke-width: 9px; stroke: rgb(74, 74, 74);" d="M 88.657 30.45 L 234.73 30.45 L 234.73 224.269 L 88.657 224.269 L 88.657 30.45 Z" id="path3310"></path>
  <g id="g3330" transform="matrix(0.441208, 0, 0, 0.468544, -801.855, -5194.43)">
    <path id="path3312" d="m 2063.75,11395.242 h 238.125" style="fill: none; fill-rule: evenodd; stroke-width: 23.8125; stroke-linecap: round; stroke-linejoin: miter; stroke-miterlimit: 4; stroke-dasharray: none; stroke-opacity: 0.870588; paint-order: fill; stroke: rgb(167, 171, 176);"></path>
    <path id="path3316" d="m 2063.75,11501.075 h 238.125" style="fill: none; fill-rule: evenodd; stroke-width: 23.8125; stroke-linecap: round; stroke-linejoin: miter; stroke-miterlimit: 4; stroke-dasharray: none; stroke-opacity: 0.870588; paint-order: fill; stroke: rgb(167, 171, 176);"></path>
    <g transform="matrix(1.4118204,0,0,1.4118204,755.9522,3488.749)" id="g3328">
      <path style="fill-opacity: 1; fill-rule: evenodd; stroke-width: 0.193224px; stroke-linecap: butt; stroke-linejoin: miter; stroke-opacity: 1; paint-order: fill; fill: rgb(188, 187, 186); stroke: rgb(167, 171, 176);" d="m 978.95834,5562.2084 v -42.3334 h 26.45836 v 42.3334 z" id="path3318"></path>
      <path id="path3320" d="m 1010.7083,5562.2084 v -52.9167 h 26.4584 v 52.9167 z" style="fill-opacity: 1; fill-rule: evenodd; stroke-width: 0.216031px; stroke-linecap: butt; stroke-linejoin: miter; stroke-opacity: 1; paint-order: fill; fill: rgb(188, 187, 186); stroke: rgb(167, 171, 176);"></path>
      <path style="fill-opacity: 1; fill-rule: evenodd; stroke-width: 0.236651px; stroke-linecap: butt; stroke-linejoin: miter; stroke-opacity: 1; paint-order: fill; fill: rgb(188, 187, 186); stroke: rgb(167, 171, 176);" d="m 1042.4583,5562.2084 v -63.5 h 26.4584 v 63.5 z" id="path3322"></path>
      <path id="path3324" d="m 947.20834,5562.2084 v -31.75 h 26.45836 v 31.75 z" style="fill-opacity: 1; fill-rule: evenodd; stroke-width: 0.167337px; stroke-linecap: butt; stroke-linejoin: miter; stroke-opacity: 1; paint-order: fill; fill: rgb(188, 187, 186); stroke: rgb(167, 171, 176);"></path>
      <path id="path3326" transform="scale(0.26458333)" d="m 4011.668,20662.062 a 7.8996132,7.8996132 0 0 0 -7.4668,10.43 l 5.0429,14.922 -432.4082,144.131 a 10.002756,10.002756 0 1 0 6.3262,18.978 l 432.4824,-144.162 4.9082,14.528 a 7.8996132,7.8996132 0 0 0 13.4141,2.689 l 16.8711,-19.182 16.8691,-19.179 a 7.8996132,7.8996132 0 0 0 -0.8945,-11.299 v 0 a 7.8996132,7.8996132 0 0 0 -0.6289,-0.477 7.8996132,7.8996132 0 0 0 -2.8554,-1.189 l -25.045,-5.02 -25.0449,-5.019 a 7.8996132,7.8996132 0 0 0 -1.5683,-0.155 z" style="color: rgb(0, 0, 0); font-style: normal; font-variant: normal; font-weight: normal; font-stretch: normal; font-size: medium; line-height: normal; font-family: sans-serif; font-feature-settings: normal; text-indent: 0px; text-align: start; text-decoration: none solid rgb(0, 0, 0); letter-spacing: normal; word-spacing: normal; text-transform: none; writing-mode: lr-tb; direction: ltr; text-orientation: mixed; dominant-baseline: auto; baseline-shift: baseline; text-anchor: start; white-space: normal; clip-rule: nonzero; display: inline; overflow: visible; visibility: visible; opacity: 1; isolation: auto; mix-blend-mode: normal; color-interpolation: srgb; color-interpolation-filters: linearrgb; vector-effect: none; fill-opacity: 1; fill-rule: evenodd; stroke-width: 20; stroke-linecap: round; stroke-linejoin: miter; stroke-miterlimit: 4; stroke-dasharray: none; stroke-dashoffset: 0; stroke-opacity: 1; color-rendering: auto; image-rendering: auto; shape-rendering: auto; text-rendering: auto; paint-order: fill; stroke: rgb(167, 171, 176); fill: rgb(170, 169, 168);"></path>
    </g>
  </g>
  <text style="fill: rgb(74, 74, 74); font-family: Consolas; font-size: 34px; font-weight: 700; stroke-miterlimit: 10; stroke-width: 0px; white-space: pre;" transform="matrix(0.474467, 0, 0, 0.44399, 48.3521, 109.292)" x="114.293" y="147.365">KwirthMetrics</text>
</svg>